<svg width="24" height="14" viewBox="0 0 24 14" fill="none" xmlns="http://www.w3.org/2000/svg">
<path d="M2 8.25H8.25" stroke="#000000" stroke-width="2.2" stroke-linecap="round" stroke-linejoin="round"/>
<path d="M12 12V2H15.75C16.413 2 17.0489 2.26339 17.5178 2.73223C17.9866 3.20108 18.25 3.83696 18.25 4.5V5.75C18.25 6.41304 17.9866 7.04893 17.5178 7.51777C17.0489 7.98661 16.413 8.25 15.75 8.25H12" stroke="#000000" stroke-width="2.2" stroke-linecap="round" stroke-linejoin="round"/>
<path d="M22 2V12" stroke="#000000" stroke-width="2.2" stroke-linecap="round" stroke-linejoin="round"/>
<path d="M8.25 12V5.125C8.25 4.2962 7.92076 3.50134 7.33471 2.91529C6.74866 2.32924 5.9538 2 5.125 2C4.2962 2 3.50134 2.32924 2.91529 2.91529C2.32924 3.50134 2 4.2962 2 5.125V12" stroke="#000000" stroke-width="2.2" stroke-linecap="round" stroke-linejoin="round"/>
</svg>

