<svg width="18" height="16" viewBox="0 0 18 16"  xmlns="http://www.w3.org/2000/svg">
<path d="M1.49984 0.5H16.4998C16.7208 0.5 16.9328 0.587797 17.0891 0.744078C17.2454 0.900358 17.3332 1.11232 17.3332 1.33333V14.6667C17.3332 14.8877 17.2454 15.0996 17.0891 15.2559C16.9328 15.4122 16.7208 15.5 16.4998 15.5H1.49984C1.27882 15.5 1.06686 15.4122 0.910582 15.2559C0.754301 15.0996 0.666504 14.8877 0.666504 14.6667V1.33333C0.666504 1.11232 0.754301 0.900358 0.910582 0.744078C1.06686 0.587797 1.27882 0.5 1.49984 0.5ZM12.7198 10.9467L15.6665 8L12.7198 5.05333L11.5415 6.23333L13.3098 8L11.5415 9.7675L12.7198 10.9467ZM4.68984 8L6.45817 6.2325L5.27984 5.05333L2.33317 8L5.27984 10.9467L6.45817 9.76667L4.68984 8ZM8.36984 12.1667L11.4032 3.83333H9.62984L6.5965 12.1667H8.36984Z" />
</svg>

