<svg width="14" height="14" viewBox="0 0 14 14" fill="none" xmlns="http://www.w3.org/2000/svg">
<path d="M3.50002 0.666672C3.8721 0.666672 4.24054 0.739958 4.58429 0.882346C4.92805 1.02473 5.24039 1.23344 5.50349 1.49654C5.76659 1.75964 5.97529 2.07198 6.11768 2.41574C6.26007 2.75949 6.33335 3.12793 6.33335 3.50001V6.33334H3.50002C2.74857 6.33334 2.02791 6.03483 1.49655 5.50347C0.965199 4.97212 0.666688 4.25145 0.666688 3.50001C0.666688 2.74856 0.965199 2.02789 1.49655 1.49654C2.02791 0.965183 2.74857 0.666672 3.50002 0.666672ZM5.00002 5.00001V3.50001C5.00002 3.20333 4.91205 2.91332 4.74723 2.66665C4.5824 2.41998 4.34814 2.22772 4.07405 2.11419C3.79996 2.00065 3.49836 1.97095 3.20739 2.02883C2.91641 2.0867 2.64914 2.22957 2.43936 2.43935C2.22958 2.64912 2.08672 2.9164 2.02884 3.20737C1.97097 3.49834 2.00067 3.79994 2.1142 4.07403C2.22773 4.34812 2.41999 4.58239 2.66667 4.74721C2.91334 4.91203 3.20335 5.00001 3.50002 5.00001H5.00002ZM3.50002 7.66667H6.33335V10.5C6.33335 11.0604 6.16718 11.6082 5.85585 12.0741C5.54452 12.5401 5.10202 12.9032 4.58429 13.1177C4.06657 13.3321 3.49688 13.3882 2.94727 13.2789C2.39765 13.1696 1.8928 12.8997 1.49655 12.5035C1.1003 12.1072 0.830455 11.6024 0.72113 11.0528C0.611805 10.5031 0.667915 9.93346 0.882363 9.41574C1.09681 8.89801 1.45997 8.45551 1.92591 8.14417C2.39185 7.83284 2.93964 7.66667 3.50002 7.66667ZM3.50002 9.00001C3.20335 9.00001 2.91334 9.08798 2.66667 9.2528C2.41999 9.41762 2.22773 9.65189 2.1142 9.92598C2.00067 10.2001 1.97097 10.5017 2.02884 10.7926C2.08672 11.0836 2.22958 11.3509 2.43936 11.5607C2.64914 11.7704 2.91641 11.9133 3.20739 11.9712C3.49836 12.0291 3.79996 11.9994 4.07405 11.8858C4.34814 11.7723 4.5824 11.58 4.74723 11.3334C4.91205 11.0867 5.00002 10.7967 5.00002 10.5V9.00001H3.50002ZM10.5 0.666672C11.2515 0.666672 11.9721 0.965183 12.5035 1.49654C13.0348 2.02789 13.3334 2.74856 13.3334 3.50001C13.3334 4.25145 13.0348 4.97212 12.5035 5.50347C11.9721 6.03483 11.2515 6.33334 10.5 6.33334H7.66669V3.50001C7.66669 2.74856 7.9652 2.02789 8.49655 1.49654C9.02791 0.965183 9.74858 0.666672 10.5 0.666672ZM10.5 5.00001C10.7967 5.00001 11.0867 4.91203 11.3334 4.74721C11.5801 4.58239 11.7723 4.34812 11.8858 4.07403C11.9994 3.79994 12.0291 3.49834 11.9712 3.20737C11.9133 2.9164 11.7705 2.64912 11.5607 2.43935C11.3509 2.22957 11.0836 2.0867 10.7927 2.02883C10.5017 1.97095 10.2001 2.00065 9.926 2.11419C9.65191 2.22772 9.41764 2.41998 9.25282 2.66665C9.088 2.91332 9.00002 3.20333 9.00002 3.50001V5.00001H10.5ZM7.66669 7.66667H10.5C11.0604 7.66667 11.6082 7.83284 12.0741 8.14417C12.5401 8.45551 12.9032 8.89801 13.1177 9.41574C13.3321 9.93346 13.3882 10.5031 13.2789 11.0528C13.1696 11.6024 12.8997 12.1072 12.5035 12.5035C12.1072 12.8997 11.6024 13.1696 11.0528 13.2789C10.5032 13.3882 9.93348 13.3321 9.41575 13.1177C8.89803 12.9032 8.45552 12.5401 8.14419 12.0741C7.83286 11.6082 7.66669 11.0604 7.66669 10.5V7.66667ZM9.00002 9.00001V10.5C9.00002 10.7967 9.088 11.0867 9.25282 11.3334C9.41764 11.58 9.65191 11.7723 9.926 11.8858C10.2001 11.9994 10.5017 12.0291 10.7927 11.9712C11.0836 11.9133 11.3509 11.7704 11.5607 11.5607C11.7705 11.3509 11.9133 11.0836 11.9712 10.7926C12.0291 10.5017 11.9994 10.2001 11.8858 9.92598C11.7723 9.65189 11.5801 9.41762 11.3334 9.2528C11.0867 9.08798 10.7967 9.00001 10.5 9.00001H9.00002Z" fill="#18263C"/>
</svg>
