<svg width="16" height="17" viewBox="0 0 16 17"  xmlns="http://www.w3.org/2000/svg">
<path d="M15.5 15.6667C15.5 15.8877 15.4122 16.0997 15.2559 16.256C15.0996 16.4122 14.8877 16.5 14.6667 16.5H1.33333C1.11232 16.5 0.900358 16.4122 0.744078 16.256C0.587798 16.0997 0.5 15.8877 0.5 15.6667V6.90836C0.499912 6.78137 0.528848 6.65604 0.584597 6.54194C0.640346 6.42785 0.721433 6.328 0.821667 6.25003L7.48833 1.06503C7.63462 0.951233 7.81467 0.88945 8 0.88945C8.18533 0.88945 8.36538 0.951233 8.51167 1.06503L15.1783 6.25003C15.2786 6.328 15.3597 6.42785 15.4154 6.54194C15.4712 6.65604 15.5001 6.78137 15.5 6.90836V15.6667ZM7.16667 9.83336V14.8334H8.83333V9.83336H7.16667Z" />
</svg>

