<svg width="20" height="20" viewBox="0 0 20 20" xmlns="http://www.w3.org/2000/svg">
<path d="M7.50002 0.833328V2.49999H12.5V0.833328H14.1667V2.49999H17.5C17.721 2.49999 17.933 2.58779 18.0893 2.74407C18.2456 2.90035 18.3334 3.11231 18.3334 3.33333V16.6667C18.3334 16.8877 18.2456 17.0996 18.0893 17.2559C17.933 17.4122 17.721 17.5 17.5 17.5H2.50002C2.27901 17.5 2.06704 17.4122 1.91076 17.2559C1.75448 17.0996 1.66669 16.8877 1.66669 16.6667V3.33333C1.66669 3.11231 1.75448 2.90035 1.91076 2.74407C2.06704 2.58779 2.27901 2.49999 2.50002 2.49999H5.83335V0.833328H7.50002ZM16.6667 8.33333H3.33335V15.8333H16.6667V8.33333ZM12.53 9.27999L13.7084 10.4583L9.58335 14.5833L6.63669 11.6367L7.81669 10.4583L9.58419 12.2267L12.5309 9.27999H12.53ZM5.83335 4.16666H3.33335V6.66666H16.6667V4.16666H14.1667V4.99999H12.5V4.16666H7.50002V4.99999H5.83335V4.16666Z" />
</svg>